# xmcd
#
# Track frame offsets: 
#        150
#        15300
#        37720
#        51892
#        73322
#        92880
#        117500
#
# Disc length: 2422 seconds
#
# Revision: 1
# Processed by: cddbd v1.5.2PL0 Copyright (c) Steve Scherf et al.
# Submitted via: ExactAudioCopy v1.0b3
#
DISCID=56097407
DTITLE=Dżem - Absolutely Live
DYEAR=1986
DGENRE=Blues Rock
TTITLE0=Norweska impresja bluesowa
TTITLE1=Wiem, na pewno wiem - nie, nie kocham Cię
TTITLE2=Poznałem go po czarnym kapeluszu
TTITLE3=Kiepska gra
TTITLE4=Blues Alabama
TTITLE5=Abym mógł przed siebie iść
TTITLE6=Niewinni i ja cz. I i II
EXTD=
EXTT0=
EXTT1=
EXTT2=
EXTT3=
EXTT4=
EXTT5=
EXTT6=
PLAYORDER=
